# xmcd CD database file
#
# Track frame offsets:
#	150
#	17400
#	31575
#	49605
#	64770
#	78412
#	101667
#	117527
#	132732
#	150687
#
# Disc length: 2320 seconds
#
# Revision: 0
# Processed by: cddbd v1.5PL3 Copyright (c) Steve Scherf et al.
# Submitted via: CDex 1.50
#
DISCID=7b090e0a
DTITLE=岩井小百合 - 銀蝿一家中学3年7組いわいさゆり
DYEAR=1994
DGENRE=JPop
TTITLE0=ドリーム ドリーム ドリーム
TTITLE1=ボーイフレンド作戦
TTITLE2=ドレミファソーダ！
TTITLE3=晴れたらRainbow
TTITLE4=ドキドキハートのバースデイ・パーティー
TTITLE5=横浜◇チ・ッ・ク
TTITLE6=素敵な恋どろぼう
TTITLE7=一枚の写真
TTITLE8=いけないのですか？
TTITLE9=To you love letter
EXTD=YEAR: 1994/02/05
EXTT0=
EXTT1=
EXTT2=
EXTT3=
EXTT4=
EXTT5=
EXTT6=
EXTT7=
EXTT8=
EXTT9=
PLAYORDER=
